<?xml version="1.0" encoding="UTF-8"?>
<!DOCTYPE svg PUBLIC "-//W3C//DTD SVG 1.1//EN" "http://www.w3.org/Graphics/SVG/1.1/DTD/svg11.dtd">
<svg xmlns="http://www.w3.org/2000/svg" version="1.1" width="2048px" height="2048px" style="shape-rendering:geometricPrecision; text-rendering:geometricPrecision; image-rendering:optimizeQuality; fill-rule:evenodd; clip-rule:evenodd" xmlns:xlink="http://www.w3.org/1999/xlink">
<g><path style="opacity:1" fill="#ff5ea4" d="M -0.5,-0.5 C 682.167,-0.5 1364.83,-0.5 2047.5,-0.5C 2047.5,682.167 2047.5,1364.83 2047.5,2047.5C 1364.83,2047.5 682.167,2047.5 -0.5,2047.5C -0.5,1364.83 -0.5,682.167 -0.5,-0.5 Z"/></g>
<g><path style="opacity:1" fill="#ff1704" d="M 468.5,1598.5 C 459.05,1596.86 449.384,1596.19 439.5,1596.5C 413.12,1594.32 387.453,1588.82 362.5,1580C 352.006,1574.59 341.673,1568.92 331.5,1563C 322.004,1556.17 318.171,1547.01 320,1535.5C 323.201,1526.9 326.201,1518.23 329,1509.5C 338.297,1491.2 350.297,1474.87 365,1460.5C 368.94,1453.56 373.273,1446.9 378,1440.5C 381.279,1432.27 384.279,1423.94 387,1415.5C 393.268,1406.11 395.268,1395.78 393,1384.5C 389.253,1373.26 385.92,1361.93 383,1350.5C 383.807,1323.28 385.64,1296.12 388.5,1269C 387.572,1255.39 384.739,1242.22 380,1229.5C 374.587,1219.01 368.921,1208.67 363,1198.5C 360.727,1191.01 358.06,1183.68 355,1176.5C 352.861,1173.06 350.361,1169.89 347.5,1167C 342.884,1164.44 338.718,1161.27 335,1157.5C 330.333,1151.5 325.667,1145.5 321,1139.5C 312.913,1114.83 307.913,1089.5 306,1063.5C 305.981,1049.15 305.815,1034.82 305.5,1020.5C 306.041,1012.84 306.541,1005.17 307,997.5C 320.282,969.659 333.949,941.992 348,914.5C 349.667,910.167 351.333,905.833 353,901.5C 360.04,889.719 366.707,877.719 373,865.5C 380.061,850.377 387.395,835.377 395,820.5C 411.417,793.998 428.083,767.664 445,741.5C 448.588,735.325 451.922,728.991 455,722.5C 472.249,696.337 489.249,670.003 506,643.5C 512.438,636.396 518.105,628.73 523,620.5C 538.5,603.667 554,586.833 569.5,570C 580.016,561.907 590.35,553.573 600.5,545C 607.337,540.747 614.337,536.747 621.5,533C 654.15,503.327 690.817,479.661 731.5,462C 750.274,454.742 769.274,448.075 788.5,442C 846.373,429.559 904.04,416.225 961.5,402C 977.579,399.765 993.579,397.098 1009.5,394C 1023.83,392.803 1038.16,391.637 1052.5,390.5C 1098.48,392.327 1144.48,393.494 1190.5,394C 1221.54,395.501 1252.54,397.501 1283.5,400C 1312.41,403.315 1340.74,409.315 1368.5,418C 1394.67,429.333 1416.17,446.499 1433,469.5C 1453.94,503.051 1473.61,537.384 1492,572.5C 1514.42,606.005 1533.76,641.339 1550,678.5C 1553.85,685.391 1555.19,692.724 1554,700.5C 1549.93,704.716 1548.26,709.716 1549,715.5C 1555.12,720.353 1557.62,726.686 1556.5,734.5C 1554.72,753.623 1550.72,772.29 1544.5,790.5C 1545.64,796.078 1547.47,801.412 1550,806.5C 1553.37,810.203 1557.03,813.536 1561,816.5C 1563.33,821.167 1565.67,825.833 1568,830.5C 1569,837.167 1570,843.833 1571,850.5C 1583.42,869.672 1596.09,888.672 1609,907.5C 1621.08,929.329 1633.41,950.996 1646,972.5C 1651.29,985.413 1656.29,998.413 1661,1011.5C 1661.67,1016.5 1661.67,1021.5 1661,1026.5C 1659.44,1031.24 1658.27,1036.07 1657.5,1041C 1661.64,1052.67 1664.31,1064.67 1665.5,1077C 1666.28,1087.32 1662.78,1095.82 1655,1102.5C 1654.72,1110.84 1655.05,1119.18 1656,1127.5C 1658.7,1141.59 1660.87,1155.76 1662.5,1170C 1662.48,1188.68 1653.15,1198.02 1634.5,1198C 1629.89,1202.61 1625.22,1207.28 1620.5,1212C 1612.91,1215.86 1604.91,1218.53 1596.5,1220C 1550.03,1226.78 1503.36,1231.78 1456.5,1235C 1452.71,1236.39 1449.05,1238.06 1445.5,1240C 1430.57,1254.72 1415.74,1269.55 1401,1284.5C 1399.28,1287.67 1397.94,1291.01 1397,1294.5C 1396.61,1300.71 1395.28,1306.71 1393,1312.5C 1380.73,1335.05 1371.23,1358.72 1364.5,1383.5C 1362.26,1402.46 1360.42,1421.46 1359,1440.5C 1355.82,1478.09 1363.15,1513.42 1381,1546.5C 1388.05,1556.56 1396.22,1565.73 1405.5,1574C 1417.5,1584 1429.5,1594 1441.5,1604C 1458.07,1613.12 1475.07,1621.45 1492.5,1629C 1506.71,1640.61 1522.38,1649.95 1539.5,1657C 1548.66,1666.16 1551.5,1676.99 1548,1689.5C 1545.69,1691.89 1542.86,1692.89 1539.5,1692.5C 1534.11,1691.65 1528.78,1690.48 1523.5,1689C 1489.41,1686.82 1455.41,1683.49 1421.5,1679C 1407.2,1677.49 1392.87,1676.49 1378.5,1676C 1346.06,1670.68 1313.39,1667.35 1280.5,1666C 1241.33,1659.85 1202,1654.85 1162.5,1651C 1125.13,1648.15 1087.79,1644.81 1050.5,1641C 964.085,1635.49 877.751,1628.83 791.5,1621C 755.497,1618.71 719.497,1616.38 683.5,1614C 625.843,1609.22 568.176,1604.55 510.5,1600C 496.524,1598.83 482.524,1598.33 468.5,1598.5 Z"/></g>
<g><path style="opacity:1" fill="#ff5ea4" d="M 656.5,1177.5 C 682.019,1176.59 703.519,1185.26 721,1203.5C 735.161,1221.66 741.494,1242.32 740,1265.5C 736.232,1297.46 727.232,1327.8 713,1356.5C 693.877,1392.27 670.71,1425.1 643.5,1455C 641.298,1456.02 638.965,1456.52 636.5,1456.5C 630.785,1455.32 625.118,1453.82 619.5,1452C 599.198,1443.56 578.865,1434.89 558.5,1426C 541.548,1416.03 524.881,1405.7 508.5,1395C 494.7,1383.53 481.867,1371.03 470,1357.5C 458.085,1341.57 449.752,1323.9 445,1304.5C 441.535,1274.67 450.701,1249.5 472.5,1229C 494.049,1212.6 517.716,1208.93 543.5,1218C 560.46,1224.3 574.626,1234.46 586,1248.5C 588.869,1226.17 598.702,1207.67 615.5,1193C 628.443,1185.51 642.109,1180.35 656.5,1177.5 Z"/></g>
<g><path style="opacity:1" fill="#ff2b2f" d="M 439.5,1596.5 C 449.384,1596.19 459.05,1596.86 468.5,1598.5C 458.655,1598.23 448.988,1597.57 439.5,1596.5 Z"/></g>
</svg>
